<?xml version="1.0" encoding="UTF-8" standalone="no"?>
<!DOCTYPE svg PUBLIC "-//W3C//DTD SVG 1.0//EN" "http://www.w3.org/TR/2001/PR-SVG-20010719/DTD/svg10.dtd">
<svg width="78cm" height="54cm" viewBox="-19 -262 1550 1072" xmlns="http://www.w3.org/2000/svg" xmlns:xlink="http://www.w3.org/1999/xlink">
  <g>
    <rect style="fill: #ffffff" x="424" y="213" width="120.1" height="28"/>
    <rect style="fill: none; fill-opacity:0; stroke-width: 2; stroke: #000000" x="424" y="213" width="120.1" height="28"/>
    <text font-size="16" style="fill: #000000;text-anchor:middle;font-family:sans-serif;font-style:italic;font-weight:700" x="484.05" y="232">Observation</text>
    <rect style="fill: #ffffff" x="424" y="241" width="120.1" height="8"/>
    <rect style="fill: none; fill-opacity:0; stroke-width: 2; stroke: #000000" x="424" y="241" width="120.1" height="8"/>
    <rect style="fill: #ffffff" x="424" y="249" width="120.1" height="8"/>
    <rect style="fill: none; fill-opacity:0; stroke-width: 2; stroke: #000000" x="424" y="249" width="120.1" height="8"/>
  </g>
  <g>
    <polyline style="fill: none; fill-opacity:0; stroke-width: 2; stroke: #000000" points="484.05,276.17 484.05,311 598.85,311 598.85,352.057 "/>
    <polygon style="fill: #ffffff" points="492.05,276.17 484.05,260.17 476.05,276.17 "/>
    <polygon style="fill: none; fill-opacity:0; stroke-width: 2; stroke: #000000" points="492.05,276.17 484.05,260.17 476.05,276.17 "/>
  </g>
  <g>
    <rect style="fill: #ffffff" x="513" y="353" width="171.7" height="28"/>
    <rect style="fill: none; fill-opacity:0; stroke-width: 2; stroke: #000000" x="513" y="353" width="171.7" height="28"/>
    <text font-size="16" style="fill: #000000;text-anchor:middle;font-family:sans-serif;font-style:italic;font-weight:700" x="598.85" y="372">BioObservation</text>
    <rect style="fill: #ffffff" x="513" y="381" width="171.7" height="36"/>
    <rect style="fill: none; fill-opacity:0; stroke-width: 2; stroke: #000000" x="513" y="381" width="171.7" height="36"/>
    <text font-size="12.8" style="fill: #000000;text-anchor:start;font-family:monospace;font-style:normal;font-weight:normal" x="516" y="395">+n_specific: integer</text>
    <text font-size="12.8" style="fill: #000000;text-anchor:start;font-family:monospace;font-style:normal;font-weight:normal" x="516" y="411">+n_unspecific: double</text>
    <rect style="fill: #ffffff" x="513" y="417" width="171.7" height="8"/>
    <rect style="fill: none; fill-opacity:0; stroke-width: 2; stroke: #000000" x="513" y="417" width="171.7" height="8"/>
  </g>
  <g>
    <rect style="fill: #ffffff" x="285" y="351" width="203.5" height="28"/>
    <rect style="fill: none; fill-opacity:0; stroke-width: 2; stroke: #ffc0cb" x="285" y="351" width="203.5" height="28"/>
    <text font-size="16" style="fill: #ffc0cb;text-anchor:middle;font-family:sans-serif;font-style:normal;font-weight:700" x="386.75" y="370">GeochemObservation</text>
    <rect style="fill: #ffffff" x="285" y="379" width="203.5" height="8"/>
    <rect style="fill: none; fill-opacity:0; stroke-width: 2; stroke: #ffc0cb" x="285" y="379" width="203.5" height="8"/>
    <rect style="fill: #ffffff" x="285" y="387" width="203.5" height="8"/>
    <rect style="fill: none; fill-opacity:0; stroke-width: 2; stroke: #ffc0cb" x="285" y="387" width="203.5" height="8"/>
  </g>
  <g>
    <polyline style="fill: none; fill-opacity:0; stroke-width: 2; stroke: #000000" points="484.05,275.236 484.05,311.497 386.75,311.497 386.75,349.994 "/>
    <polygon style="fill: #ffffff" points="492.05,275.236 484.05,259.236 476.05,275.236 "/>
    <polygon style="fill: none; fill-opacity:0; stroke-width: 2; stroke: #000000" points="492.05,275.236 484.05,259.236 476.05,275.236 "/>
  </g>
  <g>
    <rect style="fill: #ffffff" x="840" y="31" width="179.4" height="28"/>
    <rect style="fill: none; fill-opacity:0; stroke-width: 2; stroke: #ffc0cb" x="840" y="31" width="179.4" height="28"/>
    <text font-size="16" style="fill: #ffc0cb;text-anchor:middle;font-family:sans-serif;font-style:normal;font-weight:700" x="929.7" y="50">TimePlace</text>
    <rect style="fill: #ffffff" x="840" y="59" width="179.4" height="52"/>
    <rect style="fill: none; fill-opacity:0; stroke-width: 2; stroke: #ffc0cb" x="840" y="59" width="179.4" height="52"/>
    <text font-size="12.8" style="fill: #ffc0cb;text-anchor:start;font-family:monospace;font-style:normal;font-weight:normal" x="843" y="73">+time: datetime</text>
    <text font-size="12.8" style="fill: #ffc0cb;text-anchor:start;font-family:monospace;font-style:normal;font-weight:normal" x="843" y="89">+latitude: coordinate</text>
    <text font-size="12.8" style="fill: #ffc0cb;text-anchor:start;font-family:monospace;font-style:normal;font-weight:normal" x="843" y="105">+longitude: coordinate</text>
    <rect style="fill: #ffffff" x="840" y="111" width="179.4" height="36"/>
    <rect style="fill: none; fill-opacity:0; stroke-width: 2; stroke: #ffc0cb" x="840" y="111" width="179.4" height="36"/>
    <text font-size="12.8" style="fill: #ffc0cb;text-anchor:start;font-family:monospace;font-style:normal;font-weight:normal" x="843" y="125">+localities(): List</text>
    <text font-size="12.8" style="fill: #ffc0cb;text-anchor:start;font-family:monospace;font-style:normal;font-weight:normal" x="843" y="141">+season(): string</text>
  </g>
  <g>
    <polyline style="fill: none; fill-opacity:0; stroke-width: 2; stroke: #000000" points="649.564,62 668,62 668,89 838.998,89 "/>
    <text font-size="12.7998" style="fill: #000000;text-anchor:start;font-family:monospace;font-style:normal;font-weight:normal" x="670" y="71.5">occured</text>
    <polygon style="fill: #000000" points="725.9,71.5 725.9,63.5 733.9,67.5 "/>
    <text font-size="12.7998" style="fill: #000000;text-anchor:start;font-family:monospace;font-style:normal;font-weight:normal" x="653.564" y="58">0..1</text>
    <text font-size="12.7998" style="fill: #000000;text-anchor:end;font-family:monospace;font-style:normal;font-weight:normal" x="834.998" y="85">*</text>
  </g>
  <g>
    <rect style="fill: #ffffff" x="582.362" y="557.78" width="217.2" height="28"/>
    <rect style="fill: none; fill-opacity:0; stroke-width: 2; stroke: #000000" x="582.362" y="557.78" width="217.2" height="28"/>
    <text font-size="16" style="fill: #000000;text-anchor:middle;font-family:sans-serif;font-style:italic;font-weight:700" x="690.962" y="576.78">NucleotideObservation</text>
    <rect style="fill: #ffffff" x="582.362" y="585.78" width="217.2" height="8"/>
    <rect style="fill: none; fill-opacity:0; stroke-width: 2; stroke: #000000" x="582.362" y="585.78" width="217.2" height="8"/>
    <rect style="fill: #ffffff" x="582.362" y="593.78" width="217.2" height="8"/>
    <rect style="fill: none; fill-opacity:0; stroke-width: 2; stroke: #000000" x="582.362" y="593.78" width="217.2" height="8"/>
  </g>
  <g>
    <polyline style="fill: none; fill-opacity:0; stroke-width: 2; stroke: #000000" points="598.85,443.946 598.85,539.364 690.962,539.364 690.962,556.789 "/>
    <polygon style="fill: #ffffff" points="606.85,443.946 598.85,427.946 590.85,443.946 "/>
    <polygon style="fill: none; fill-opacity:0; stroke-width: 2; stroke: #000000" points="606.85,443.946 598.85,427.946 590.85,443.946 "/>
  </g>
  <g>
    <rect style="fill: #ffffff" x="372.852" y="675" width="107.15" height="28"/>
    <rect style="fill: none; fill-opacity:0; stroke-width: 2; stroke: #ffc0cb" x="372.852" y="675" width="107.15" height="28"/>
    <text font-size="16" style="fill: #ffc0cb;text-anchor:middle;font-family:sans-serif;font-style:normal;font-weight:700" x="426.427" y="694">Metabolite</text>
    <rect style="fill: #ffffff" x="372.852" y="703" width="107.15" height="8"/>
    <rect style="fill: none; fill-opacity:0; stroke-width: 2; stroke: #ffc0cb" x="372.852" y="703" width="107.15" height="8"/>
    <rect style="fill: #ffffff" x="372.852" y="711" width="107.15" height="8"/>
    <rect style="fill: none; fill-opacity:0; stroke-width: 2; stroke: #ffc0cb" x="372.852" y="711" width="107.15" height="8"/>
  </g>
  <g>
    <polyline style="fill: none; fill-opacity:0; stroke-width: 2; stroke: #000000" points="598.85,443.236 598.85,539.364 474.468,539.364 474.468,554.585 "/>
    <polygon style="fill: #ffffff" points="606.85,443.236 598.85,427.236 590.85,443.236 "/>
    <polygon style="fill: none; fill-opacity:0; stroke-width: 2; stroke: #000000" points="606.85,443.236 598.85,427.236 590.85,443.236 "/>
  </g>
  <g>
    <rect style="fill: #ffffff" x="493.542" y="675" width="76.05" height="28"/>
    <rect style="fill: none; fill-opacity:0; stroke-width: 2; stroke: #ffc0cb" x="493.542" y="675" width="76.05" height="28"/>
    <text font-size="16" style="fill: #ffc0cb;text-anchor:middle;font-family:sans-serif;font-style:normal;font-weight:700" x="531.567" y="694">Protein</text>
    <rect style="fill: #ffffff" x="493.542" y="703" width="76.05" height="8"/>
    <rect style="fill: none; fill-opacity:0; stroke-width: 2; stroke: #ffc0cb" x="493.542" y="703" width="76.05" height="8"/>
    <rect style="fill: #ffffff" x="493.542" y="711" width="76.05" height="8"/>
    <rect style="fill: none; fill-opacity:0; stroke-width: 2; stroke: #ffc0cb" x="493.542" y="711" width="76.05" height="8"/>
  </g>
  <g>
    <rect style="fill: #ffffff" x="429.218" y="555.588" width="90.5" height="28"/>
    <rect style="fill: none; fill-opacity:0; stroke-width: 2; stroke: #ffc0cb" x="429.218" y="555.588" width="90.5" height="28"/>
    <text font-size="16" style="fill: #ffc0cb;text-anchor:middle;font-family:sans-serif;font-style:normal;font-weight:700" x="474.468" y="574.588">Molecule</text>
    <rect style="fill: #ffffff" x="429.218" y="583.588" width="90.5" height="8"/>
    <rect style="fill: none; fill-opacity:0; stroke-width: 2; stroke: #ffc0cb" x="429.218" y="583.588" width="90.5" height="8"/>
    <rect style="fill: #ffffff" x="429.218" y="591.588" width="90.5" height="8"/>
    <rect style="fill: none; fill-opacity:0; stroke-width: 2; stroke: #ffc0cb" x="429.218" y="591.588" width="90.5" height="8"/>
  </g>
  <g>
    <polyline style="fill: none; fill-opacity:0; stroke-width: 2; stroke: #000000" points="474.468,618.828 474.468,640.216 426.427,640.216 426.427,674.015 "/>
    <polygon style="fill: #ffffff" points="482.468,618.828 474.468,602.828 466.468,618.828 "/>
    <polygon style="fill: none; fill-opacity:0; stroke-width: 2; stroke: #000000" points="482.468,618.828 474.468,602.828 466.468,618.828 "/>
  </g>
  <g>
    <polyline style="fill: none; fill-opacity:0; stroke-width: 2; stroke: #000000" points="474.468,618.828 474.468,640.216 531.567,640.216 531.567,674.015 "/>
    <polygon style="fill: #ffffff" points="482.468,618.828 474.468,602.828 466.468,618.828 "/>
    <polygon style="fill: none; fill-opacity:0; stroke-width: 2; stroke: #000000" points="482.468,618.828 474.468,602.828 466.468,618.828 "/>
  </g>
  <g>
    <rect style="fill: #ffffff" x="560.614" y="764.804" width="168.7" height="28"/>
    <rect style="fill: none; fill-opacity:0; stroke-width: 2; stroke: #000099" x="560.614" y="764.804" width="168.7" height="28"/>
    <text font-size="16" style="fill: #000099;text-anchor:middle;font-family:sans-serif;font-style:normal;font-weight:700" x="644.964" y="783.804">cDNAObservation</text>
    <rect style="fill: #ffffff" x="560.614" y="792.804" width="168.7" height="8"/>
    <rect style="fill: none; fill-opacity:0; stroke-width: 2; stroke: #000099" x="560.614" y="792.804" width="168.7" height="8"/>
    <rect style="fill: #ffffff" x="560.614" y="800.804" width="168.7" height="8"/>
    <rect style="fill: none; fill-opacity:0; stroke-width: 2; stroke: #000099" x="560.614" y="800.804" width="168.7" height="8"/>
  </g>
  <g>
    <rect style="fill: #ffffff" x="660.614" y="675.804" width="60.55" height="28"/>
    <rect style="fill: none; fill-opacity:0; stroke-width: 2; stroke: #ffc0cb" x="660.614" y="675.804" width="60.55" height="28"/>
    <text font-size="16" style="fill: #ffc0cb;text-anchor:middle;font-family:sans-serif;font-style:normal;font-weight:700" x="690.889" y="694.804">gDNA</text>
    <rect style="fill: #ffffff" x="660.614" y="703.804" width="60.55" height="8"/>
    <rect style="fill: none; fill-opacity:0; stroke-width: 2; stroke: #ffc0cb" x="660.614" y="703.804" width="60.55" height="8"/>
    <rect style="fill: #ffffff" x="660.614" y="711.804" width="60.55" height="8"/>
    <rect style="fill: none; fill-opacity:0; stroke-width: 2; stroke: #ffc0cb" x="660.614" y="711.804" width="60.55" height="8"/>
  </g>
  <g>
    <rect style="fill: #ffffff" x="740.614" y="763.804" width="93.4" height="28"/>
    <rect style="fill: none; fill-opacity:0; stroke-width: 2; stroke: #000000" x="740.614" y="763.804" width="93.4" height="28"/>
    <text font-size="16" style="fill: #000000;text-anchor:middle;font-family:sans-serif;font-style:normal;font-weight:700" x="787.314" y="782.804">Amplicon</text>
    <rect style="fill: #ffffff" x="740.614" y="791.804" width="93.4" height="8"/>
    <rect style="fill: none; fill-opacity:0; stroke-width: 2; stroke: #000000" x="740.614" y="791.804" width="93.4" height="8"/>
    <rect style="fill: #ffffff" x="740.614" y="799.804" width="93.4" height="8"/>
    <rect style="fill: none; fill-opacity:0; stroke-width: 2; stroke: #000000" x="740.614" y="799.804" width="93.4" height="8"/>
  </g>
  <g>
    <polyline style="fill: none; fill-opacity:0; stroke-width: 2; stroke: #000000" points="690.962,620.975 690.962,640.216 644.964,640.216 644.964,763.81 "/>
    <polygon style="fill: #ffffff" points="698.962,620.975 690.962,604.975 682.962,620.975 "/>
    <polygon style="fill: none; fill-opacity:0; stroke-width: 2; stroke: #000000" points="698.962,620.975 690.962,604.975 682.962,620.975 "/>
  </g>
  <g>
    <polyline style="fill: none; fill-opacity:0; stroke-width: 2; stroke: #000000" points="690.962,621.022 690.962,646.792 690.889,646.792 690.889,674.798 "/>
    <polygon style="fill: #ffffff" points="698.962,621.022 690.962,605.022 682.962,621.022 "/>
    <polygon style="fill: none; fill-opacity:0; stroke-width: 2; stroke: #000000" points="698.962,621.022 690.962,605.022 682.962,621.022 "/>
  </g>
  <g>
    <polyline style="fill: none; fill-opacity:0; stroke-width: 2; stroke: #000000" points="690.962,620.016 690.962,640.216 787.314,640.216 787.314,762.798 "/>
    <polygon style="fill: #ffffff" points="698.962,620.016 690.962,604.016 682.962,620.016 "/>
    <polygon style="fill: none; fill-opacity:0; stroke-width: 2; stroke: #000000" points="698.962,620.016 690.962,604.016 682.962,620.016 "/>
  </g>
  <g>
    <rect style="fill: #ffffff" x="1373.73" y="426.898" width="156.3" height="28"/>
    <rect style="fill: none; fill-opacity:0; stroke-width: 2; stroke: #000099" x="1373.73" y="426.898" width="156.3" height="28"/>
    <text font-size="16" style="fill: #000099;text-anchor:middle;font-family:sans-serif;font-style:normal;font-weight:700" x="1451.88" y="445.898">Taxon</text>
    <rect style="fill: #ffffff" x="1373.73" y="454.898" width="156.3" height="20"/>
    <rect style="fill: none; fill-opacity:0; stroke-width: 2; stroke: #000099" x="1373.73" y="454.898" width="156.3" height="20"/>
    <text font-size="12.8" style="fill: #000099;text-anchor:start;font-family:monospace;font-style:normal;font-weight:normal" x="1376.73" y="468.898">+parent_id: integer</text>
    <rect style="fill: #ffffff" x="1373.73" y="474.898" width="156.3" height="8"/>
    <rect style="fill: none; fill-opacity:0; stroke-width: 2; stroke: #000099" x="1373.73" y="474.898" width="156.3" height="8"/>
  </g>
  <g>
    <rect style="fill: #ffffff" x="164" y="207" width="195.1" height="28"/>
    <rect style="fill: none; fill-opacity:0; stroke-width: 2; stroke: #ffc0cb" x="164" y="207" width="195.1" height="28"/>
    <text font-size="16" style="fill: #ffc0cb;text-anchor:middle;font-family:sans-serif;font-style:normal;font-weight:700" x="261.55" y="226">ObservationRelation</text>
    <rect style="fill: #ffffff" x="164" y="235" width="195.1" height="20"/>
    <rect style="fill: none; fill-opacity:0; stroke-width: 2; stroke: #ffc0cb" x="164" y="235" width="195.1" height="20"/>
    <text font-size="12.8" style="fill: #ffc0cb;text-anchor:start;font-family:monospace;font-style:normal;font-weight:normal" x="167" y="249">+relation: string</text>
    <rect style="fill: #ffffff" x="164" y="255" width="195.1" height="8"/>
    <rect style="fill: none; fill-opacity:0; stroke-width: 2; stroke: #ffc0cb" x="164" y="255" width="195.1" height="8"/>
  </g>
  <g>
    <polyline style="fill: none; fill-opacity:0; stroke-width: 2; stroke: #000000" points="360.098,235 396.8,235 396.8,235 422.995,235 "/>
    <text font-size="12.7998" style="fill: #000000;text-anchor:middle;font-family:monospace;font-style:normal;font-weight:normal" x="396.8" y="231"/>
    <polygon style="fill: #000000" points="398.8,231 398.8,223 406.8,227 "/>
    <text font-size="12.7998" style="fill: #000000;text-anchor:start;font-family:monospace;font-style:normal;font-weight:normal" x="364.098" y="231"/>
    <text font-size="12.7998" style="fill: #000000;text-anchor:end;font-family:monospace;font-style:normal;font-weight:normal" x="418.995" y="231"/>
  </g>
  <g>
    <rect style="fill: #ffffff" x="428.896" y="96.7246" width="110.1" height="28"/>
    <rect style="fill: none; fill-opacity:0; stroke-width: 2; stroke: #000000" x="428.896" y="96.7246" width="110.1" height="28"/>
    <text font-size="16" style="fill: #000000;text-anchor:middle;font-family:sans-serif;font-style:normal;font-weight:700" x="483.946" y="115.725">Sample</text>
    <rect style="fill: #ffffff" x="428.896" y="124.725" width="110.1" height="20"/>
    <rect style="fill: none; fill-opacity:0; stroke-width: 2; stroke: #000000" x="428.896" y="124.725" width="110.1" height="20"/>
    <text font-size="12.8" style="fill: #000000;text-anchor:start;font-family:monospace;font-style:normal;font-weight:normal" x="431.896" y="138.725">+code: string</text>
    <rect style="fill: #ffffff" x="428.896" y="144.725" width="110.1" height="8"/>
    <rect style="fill: none; fill-opacity:0; stroke-width: 2; stroke: #000000" x="428.896" y="144.725" width="110.1" height="8"/>
  </g>
  <g>
    <polyline style="fill: none; fill-opacity:0; stroke-width: 2; stroke: #000000" points="484.05,211.995 484.05,180.359 483.946,180.359 483.946,177.896 "/>
    <polygon style="fill: #ffffff" points="483.946,152.725 488.746,166.725 483.946,180.725 479.146,166.725 "/>
    <polygon style="fill: none; fill-opacity:0; stroke-width: 2; stroke: #000000" points="483.946,152.725 488.746,166.725 483.946,180.725 479.146,166.725 "/>
    <text font-size="12.7998" style="fill: #000000;text-anchor:middle;font-family:monospace;font-style:normal;font-weight:normal" x="483.998" y="176.359"/>
    <text font-size="12.7998" style="fill: #000000;text-anchor:start;font-family:monospace;font-style:normal;font-weight:normal" x="488.05" y="207.995">1</text>
    <text font-size="12.7998" style="fill: #000000;text-anchor:start;font-family:monospace;font-style:normal;font-weight:normal" x="494.946" y="164.725">*</text>
  </g>
  <g>
    <rect style="fill: #ffffff" x="261.43" y="102.68" width="106.75" height="28"/>
    <rect style="fill: none; fill-opacity:0; stroke-width: 2; stroke: #000000" x="261.43" y="102.68" width="106.75" height="28"/>
    <text font-size="16" style="fill: #000000;text-anchor:middle;font-family:sans-serif;font-style:normal;font-weight:700" x="314.805" y="121.68">SampleSet</text>
    <rect style="fill: #ffffff" x="261.43" y="130.68" width="106.75" height="8"/>
    <rect style="fill: none; fill-opacity:0; stroke-width: 2; stroke: #000000" x="261.43" y="130.68" width="106.75" height="8"/>
    <rect style="fill: #ffffff" x="261.43" y="138.68" width="106.75" height="8"/>
    <rect style="fill: none; fill-opacity:0; stroke-width: 2; stroke: #000000" x="261.43" y="138.68" width="106.75" height="8"/>
  </g>
  <g>
    <polyline style="fill: none; fill-opacity:0; stroke-width: 2; stroke: #000000" points="394.358,124.68 405.538,124.68 405.538,124.725 427.889,124.725 "/>
    <polygon style="fill: #ffffff" points="369.187,124.68 383.187,119.88 397.187,124.68 383.187,129.48 "/>
    <polygon style="fill: none; fill-opacity:0; stroke-width: 2; stroke: #000000" points="369.187,124.68 383.187,119.88 397.187,124.68 383.187,129.48 "/>
    <text font-size="12.7998" style="fill: #000000;text-anchor:start;font-family:monospace;font-style:normal;font-weight:normal" x="407.538" y="120.702"/>
    <text font-size="12.7998" style="fill: #000000;text-anchor:start;font-family:monospace;font-style:normal;font-weight:normal" x="401.187" y="120.68"/>
    <text font-size="12.7998" style="fill: #000000;text-anchor:end;font-family:monospace;font-style:normal;font-weight:normal" x="423.889" y="120.725">0..1</text>
  </g>
  <g>
    <rect style="fill: #ffffff" x="728.438" y="182.718" width="325.7" height="28"/>
    <rect style="fill: none; fill-opacity:0; stroke-width: 2; stroke: #000000" x="728.438" y="182.718" width="325.7" height="28"/>
    <text font-size="16" style="fill: #000000;text-anchor:middle;font-family:sans-serif;font-style:normal;font-weight:700" x="891.288" y="201.718">AnnotationSource</text>
    <rect style="fill: #ffffff" x="728.438" y="210.718" width="325.7" height="68"/>
    <rect style="fill: none; fill-opacity:0; stroke-width: 2; stroke: #000000" x="728.438" y="210.718" width="325.7" height="68"/>
    <text font-size="12.8" style="fill: #000000;text-anchor:start;font-family:monospace;font-style:normal;font-weight:normal" x="731.438" y="224.718">+dbname: string = silva|rdp|...</text>
    <text font-size="12.8" style="fill: #000000;text-anchor:start;font-family:monospace;font-style:normal;font-weight:normal" x="731.438" y="240.718">+dbversion: string</text>
    <text font-size="12.8" style="fill: #000000;text-anchor:start;font-family:monospace;font-style:normal;font-weight:normal" x="731.438" y="256.718">+algorithm: string = CD-HIT:ssaha2</text>
    <text font-size="12.8" style="fill: #000000;text-anchor:start;font-family:monospace;font-style:normal;font-weight:normal" x="731.438" y="272.718">+algorithm_parameters: string = e.g. '97'</text>
    <rect style="fill: #ffffff" x="728.438" y="278.718" width="325.7" height="8"/>
    <rect style="fill: none; fill-opacity:0; stroke-width: 2; stroke: #000000" x="728.438" y="278.718" width="325.7" height="8"/>
  </g>
  <g>
    <rect style="fill: #ffffff" x="594.514" y="6" width="110.1" height="28"/>
    <rect style="fill: none; fill-opacity:0; stroke-width: 2; stroke: #000000" x="594.514" y="6" width="110.1" height="28"/>
    <text font-size="16" style="fill: #000000;text-anchor:middle;font-family:sans-serif;font-style:normal;font-weight:700" x="649.564" y="25">Subject</text>
    <rect style="fill: #ffffff" x="594.514" y="34" width="110.1" height="20"/>
    <rect style="fill: none; fill-opacity:0; stroke-width: 2; stroke: #000000" x="594.514" y="34" width="110.1" height="20"/>
    <text font-size="12.8" style="fill: #000000;text-anchor:start;font-family:monospace;font-style:normal;font-weight:normal" x="597.514" y="48">+code: string</text>
    <rect style="fill: #ffffff" x="594.514" y="54" width="110.1" height="8"/>
    <rect style="fill: none; fill-opacity:0; stroke-width: 2; stroke: #000000" x="594.514" y="54" width="110.1" height="8"/>
  </g>
  <g>
    <polyline style="fill: none; fill-opacity:0; stroke-width: 2; stroke: #000000" points="538.996,110.725 538.996,111 649.564,111 649.564,62 "/>
    <text font-size="12.7998" style="fill: #000000;text-anchor:middle;font-family:monospace;font-style:normal;font-weight:normal" x="594.28" y="107"/>
    <text font-size="12.7998" style="fill: #000000;text-anchor:start;font-family:monospace;font-style:normal;font-weight:normal" x="542.996" y="122.725">0..1</text>
    <text font-size="12.7998" style="fill: #000000;text-anchor:start;font-family:monospace;font-style:normal;font-weight:normal" x="653.564" y="74">*</text>
  </g>
  <g>
    <polyline style="fill: none; fill-opacity:0; stroke-width: 2; stroke: #000000" points="649.564,5.01532 649.564,-42.25 667.6,-42.25 667.6,-77.0538 "/>
    <text font-size="12.7998" style="fill: #000000;text-anchor:middle;font-family:monospace;font-style:normal;font-weight:normal" x="658.582" y="-46.25"/>
    <polygon style="fill: #000000" points="660.582,-46.25 660.582,-54.25 668.582,-50.25 "/>
    <text font-size="12.7998" style="fill: #000000;text-anchor:start;font-family:monospace;font-style:normal;font-weight:normal" x="653.564" y="1.01532">0..*</text>
    <text font-size="12.7998" style="fill: #000000;text-anchor:start;font-family:monospace;font-style:normal;font-weight:normal" x="671.6" y="-65.0538">1</text>
  </g>
  <g>
    <rect style="fill: #ffffff" x="261.514" y="6.75" width="110.1" height="28"/>
    <rect style="fill: none; fill-opacity:0; stroke-width: 2; stroke: #000000" x="261.514" y="6.75" width="110.1" height="28"/>
    <text font-size="16" style="fill: #000000;text-anchor:middle;font-family:sans-serif;font-style:normal;font-weight:700" x="316.564" y="25.75">Project</text>
    <rect style="fill: #ffffff" x="261.514" y="34.75" width="110.1" height="20"/>
    <rect style="fill: none; fill-opacity:0; stroke-width: 2; stroke: #000000" x="261.514" y="34.75" width="110.1" height="20"/>
    <text font-size="12.8" style="fill: #000000;text-anchor:start;font-family:monospace;font-style:normal;font-weight:normal" x="264.514" y="48.75">+name: string</text>
    <rect style="fill: #ffffff" x="261.514" y="54.75" width="110.1" height="8"/>
    <rect style="fill: none; fill-opacity:0; stroke-width: 2; stroke: #000000" x="261.514" y="54.75" width="110.1" height="8"/>
  </g>
  <g>
    <polyline style="fill: none; fill-opacity:0; stroke-width: 2; stroke: #000000" points="316.564,87.9216 316.564,89.212 314.805,89.212 314.805,101.674 "/>
    <polygon style="fill: #ffffff" points="316.564,62.75 321.364,76.75 316.564,90.75 311.764,76.75 "/>
    <polygon style="fill: none; fill-opacity:0; stroke-width: 2; stroke: #000000" points="316.564,62.75 321.364,76.75 316.564,90.75 311.764,76.75 "/>
    <text font-size="12.7998" style="fill: #000000;text-anchor:middle;font-family:monospace;font-style:normal;font-weight:normal" x="315.684" y="85.212"/>
    <text font-size="12.7998" style="fill: #000000;text-anchor:start;font-family:monospace;font-style:normal;font-weight:normal" x="327.564" y="74.75"/>
    <text font-size="12.7998" style="fill: #000000;text-anchor:start;font-family:monospace;font-style:normal;font-weight:normal" x="318.805" y="97.674"/>
  </g>
  <g>
    <rect style="fill: #ffffff" x="-17.4587" y="-260.76" width="525.9" height="28"/>
    <rect style="fill: none; fill-opacity:0; stroke-width: 2; stroke: #000000" x="-17.4587" y="-260.76" width="525.9" height="28"/>
    <text font-size="16" style="fill: #000000;text-anchor:middle;font-family:sans-serif;font-style:normal;font-weight:700" x="245.491" y="-241.76">ProjectProperty</text>
    <rect style="fill: #ffffff" x="-17.4587" y="-232.76" width="525.9" height="52"/>
    <rect style="fill: none; fill-opacity:0; stroke-width: 2; stroke: #000000" x="-17.4587" y="-232.76" width="525.9" height="52"/>
    <text font-size="12.8" style="fill: #000000;text-anchor:start;font-family:monospace;font-style:normal;font-weight:normal" x="-14.4587" y="-218.76">+name: string</text>
    <text font-size="12.8" style="fill: #000000;text-anchor:start;font-family:monospace;font-style:normal;font-weight:normal" x="-14.4587" y="-202.76">+value: string</text>
    <text font-size="12.8" style="fill: #000000;text-anchor:start;font-family:monospace;font-style:normal;font-weight:normal" x="-14.4587" y="-186.76">+datatype: string = integer|float|string|boolean|date|datetime|time</text>
    <rect style="fill: #ffffff" x="-17.4587" y="-180.76" width="525.9" height="8"/>
    <rect style="fill: none; fill-opacity:0; stroke-width: 2; stroke: #000000" x="-17.4587" y="-180.76" width="525.9" height="8"/>
  </g>
  <g>
    <polyline style="fill: none; fill-opacity:0; stroke-width: 2; stroke: #000000" points="316.564,6.75 316.564,-84 245.492,-84 245.491,-171.764 "/>
    <text font-size="12.7998" style="fill: #000000;text-anchor:middle;font-family:monospace;font-style:normal;font-weight:normal" x="281.028" y="-88"/>
    <text font-size="12.7998" style="fill: #000000;text-anchor:start;font-family:monospace;font-style:normal;font-weight:normal" x="320.564" y="2.75">0..*</text>
    <text font-size="12.7998" style="fill: #000000;text-anchor:start;font-family:monospace;font-style:normal;font-weight:normal" x="249.491" y="-159.764">1</text>
  </g>
  <g>
    <rect style="fill: #ffffff" x="1072.2" y="337.462" width="210.2" height="28"/>
    <rect style="fill: none; fill-opacity:0; stroke-width: 2; stroke: #000000" x="1072.2" y="337.462" width="210.2" height="28"/>
    <text font-size="16" style="fill: #000000;text-anchor:middle;font-family:sans-serif;font-style:italic;font-weight:700" x="1177.3" y="356.462">AnnotationTarget</text>
    <rect style="fill: #ffffff" x="1072.2" y="365.462" width="210.2" height="68"/>
    <rect style="fill: none; fill-opacity:0; stroke-width: 2; stroke: #000000" x="1072.2" y="365.462" width="210.2" height="68"/>
    <text font-size="12.8" style="fill: #000000;text-anchor:start;font-family:monospace;font-style:normal;font-weight:normal" x="1075.2" y="379.462">+name: string</text>
    <text font-size="12.8" style="fill: #000000;text-anchor:start;font-family:monospace;font-style:normal;font-weight:normal" x="1075.2" y="395.462">+source_db: string</text>
    <text font-size="12.8" style="fill: #000000;text-anchor:start;font-family:monospace;font-style:normal;font-weight:normal" x="1075.2" y="411.462">+source_identifier: string</text>
    <text font-size="12.8" style="fill: #000000;text-anchor:start;font-family:monospace;font-style:normal;font-weight:normal" x="1075.2" y="427.462">+rank: string</text>
    <rect style="fill: #ffffff" x="1072.2" y="433.462" width="210.2" height="8"/>
    <rect style="fill: none; fill-opacity:0; stroke-width: 2; stroke: #000000" x="1072.2" y="433.462" width="210.2" height="8"/>
  </g>
  <g>
    <rect style="fill: #ffffff" x="1424" y="302.804" width="47.5" height="28"/>
    <rect style="fill: none; fill-opacity:0; stroke-width: 2; stroke: #000000" x="1424" y="302.804" width="47.5" height="28"/>
    <text font-size="16" style="fill: #000000;text-anchor:middle;font-family:sans-serif;font-style:normal;font-weight:700" x="1447.75" y="321.804">OTU</text>
    <rect style="fill: #ffffff" x="1424" y="330.804" width="47.5" height="8"/>
    <rect style="fill: none; fill-opacity:0; stroke-width: 2; stroke: #000000" x="1424" y="330.804" width="47.5" height="8"/>
    <rect style="fill: #ffffff" x="1424" y="338.804" width="47.5" height="8"/>
    <rect style="fill: none; fill-opacity:0; stroke-width: 2; stroke: #000000" x="1424" y="338.804" width="47.5" height="8"/>
  </g>
  <g>
    <rect style="fill: #ffffff" x="589.2" y="-165.979" width="156.8" height="28"/>
    <rect style="fill: none; fill-opacity:0; stroke-width: 2; stroke: #000000" x="589.2" y="-165.979" width="156.8" height="28"/>
    <text font-size="16" style="fill: #000000;text-anchor:middle;font-family:sans-serif;font-style:normal;font-weight:700" x="667.6" y="-146.979">SubjectProperty</text>
    <rect style="fill: #ffffff" x="589.2" y="-137.979" width="156.8" height="52"/>
    <rect style="fill: none; fill-opacity:0; stroke-width: 2; stroke: #000000" x="589.2" y="-137.979" width="156.8" height="52"/>
    <text font-size="12.8" style="fill: #000000;text-anchor:start;font-family:monospace;font-style:normal;font-weight:normal" x="592.2" y="-123.979">+name: string</text>
    <text font-size="12.8" style="fill: #000000;text-anchor:start;font-family:monospace;font-style:normal;font-weight:normal" x="592.2" y="-107.979">+value: string</text>
    <text font-size="12.8" style="fill: #000000;text-anchor:start;font-family:monospace;font-style:normal;font-weight:normal" x="592.2" y="-91.9794">+datatype: string</text>
    <rect style="fill: #ffffff" x="589.2" y="-85.9794" width="156.8" height="8"/>
    <rect style="fill: none; fill-opacity:0; stroke-width: 2; stroke: #000000" x="589.2" y="-85.9794" width="156.8" height="8"/>
  </g>
  <g>
    <rect style="fill: #ffffff" x="406.2" y="-132.95" width="155.7" height="28"/>
    <rect style="fill: none; fill-opacity:0; stroke-width: 2; stroke: #000000" x="406.2" y="-132.95" width="155.7" height="28"/>
    <text font-size="16" style="fill: #000000;text-anchor:middle;font-family:sans-serif;font-style:normal;font-weight:700" x="484.05" y="-113.95">SampleProperty</text>
    <rect style="fill: #ffffff" x="406.2" y="-104.95" width="155.7" height="52"/>
    <rect style="fill: none; fill-opacity:0; stroke-width: 2; stroke: #000000" x="406.2" y="-104.95" width="155.7" height="52"/>
    <text font-size="12.8" style="fill: #000000;text-anchor:start;font-family:monospace;font-style:normal;font-weight:normal" x="409.2" y="-90.95">+name: string</text>
    <text font-size="12.8" style="fill: #000000;text-anchor:start;font-family:monospace;font-style:normal;font-weight:normal" x="409.2" y="-74.95">+value: string</text>
    <text font-size="12.8" style="fill: #000000;text-anchor:start;font-family:monospace;font-style:normal;font-weight:normal" x="409.2" y="-58.95">+datatype: string</text>
    <rect style="fill: #ffffff" x="406.2" y="-52.95" width="155.7" height="8"/>
    <rect style="fill: none; fill-opacity:0; stroke-width: 2; stroke: #000000" x="406.2" y="-52.95" width="155.7" height="8"/>
  </g>
  <g>
    <polyline style="fill: none; fill-opacity:0; stroke-width: 2; stroke: #000000" points="483.946,95.7175 483.946,25.8865 484.05,25.8865 484.05,-43.9445 "/>
    <text font-size="12.7998" style="fill: #000000;text-anchor:middle;font-family:monospace;font-style:normal;font-weight:normal" x="483.998" y="21.8865"/>
    <text font-size="12.7998" style="fill: #000000;text-anchor:start;font-family:monospace;font-style:normal;font-weight:normal" x="487.946" y="91.7175">0..*</text>
    <text font-size="12.7998" style="fill: #000000;text-anchor:start;font-family:monospace;font-style:normal;font-weight:normal" x="488.05" y="-31.9445">1</text>
  </g>
  <g>
    <polyline style="fill: none; fill-opacity:0; stroke-width: 2; stroke: #000000" points="372.621,34.75 483.064,34.75 483.064,34 593.507,34 "/>
    <text font-size="12.7998" style="fill: #000000;text-anchor:start;font-family:monospace;font-style:normal;font-weight:normal" x="485.064" y="30.375"/>
    <text font-size="12.7998" style="fill: #000000;text-anchor:start;font-family:monospace;font-style:normal;font-weight:normal" x="376.621" y="30.75"> 0.*</text>
    <text font-size="12.7998" style="fill: #000000;text-anchor:start;font-family:monospace;font-style:normal;font-weight:normal" x="376.621" y="46.75"/>
    <text font-size="12.7998" style="fill: #000000;text-anchor:end;font-family:monospace;font-style:normal;font-weight:normal" x="589.507" y="30"> 1</text>
    <text font-size="12.7998" style="fill: #000000;text-anchor:end;font-family:monospace;font-style:normal;font-weight:normal" x="589.507" y="46"/>
  </g>
  <g>
    <rect style="fill: #ffffff" x="1374" y="361" width="156.3" height="28"/>
    <rect style="fill: none; fill-opacity:0; stroke-width: 2; stroke: #000099" x="1374" y="361" width="156.3" height="28"/>
    <text font-size="16" style="fill: #000099;text-anchor:middle;font-family:sans-serif;font-style:normal;font-weight:700" x="1452.15" y="380">Function</text>
    <rect style="fill: #ffffff" x="1374" y="389" width="156.3" height="20"/>
    <rect style="fill: none; fill-opacity:0; stroke-width: 2; stroke: #000099" x="1374" y="389" width="156.3" height="20"/>
    <text font-size="12.8" style="fill: #000099;text-anchor:start;font-family:monospace;font-style:normal;font-weight:normal" x="1377" y="403">+parent_id: integer</text>
    <rect style="fill: #ffffff" x="1374" y="409" width="156.3" height="8"/>
    <rect style="fill: none; fill-opacity:0; stroke-width: 2; stroke: #000099" x="1374" y="409" width="156.3" height="8"/>
  </g>
  <g>
    <polyline style="fill: none; fill-opacity:0; stroke-width: 2; stroke: #000000" points="1301.64,389.462 1336.2,389.462 1336.2,389 1372.99,389 "/>
    <polygon style="fill: #ffffff" points="1301.64,381.462 1285.64,389.462 1301.64,397.462 "/>
    <polygon style="fill: none; fill-opacity:0; stroke-width: 2; stroke: #000000" points="1301.64,381.462 1285.64,389.462 1301.64,397.462 "/>
  </g>
  <g>
    <polyline style="fill: none; fill-opacity:0; stroke-width: 2; stroke: #000000" points="1301.64,389.462 1336.06,389.462 1336.06,454.898 1372.72,454.898 "/>
    <polygon style="fill: #ffffff" points="1301.64,381.462 1285.64,389.462 1301.64,397.462 "/>
    <polygon style="fill: none; fill-opacity:0; stroke-width: 2; stroke: #000000" points="1301.64,381.462 1285.64,389.462 1301.64,397.462 "/>
  </g>
  <g>
    <polyline style="fill: none; fill-opacity:0; stroke-width: 2; stroke: #000000" points="1301.63,389.462 1336,389.462 1336,324.804 1423,324.804 "/>
    <polygon style="fill: #ffffff" points="1301.63,381.462 1285.63,389.462 1301.63,397.462 "/>
    <polygon style="fill: none; fill-opacity:0; stroke-width: 2; stroke: #000000" points="1301.63,381.462 1285.63,389.462 1301.63,397.462 "/>
  </g>
  <g>
    <polyline style="fill: none; fill-opacity:0; stroke-width: 2; stroke: #000000" points="685.705,389 878.449,389 878.449,389.462 1071.19,389.462 "/>
    <text font-size="12.7998" style="fill: #000000;text-anchor:start;font-family:monospace;font-style:normal;font-weight:normal" x="880.449" y="385.231"/>
    <text font-size="12.7998" style="fill: #000000;text-anchor:start;font-family:monospace;font-style:normal;font-weight:normal" x="689.705" y="385">1..*</text>
    <text font-size="12.7998" style="fill: #000000;text-anchor:end;font-family:monospace;font-style:normal;font-weight:normal" x="1067.19" y="385.462">0..*</text>
  </g>
  <g>
    <polygon style="fill: #ffffff" points="780,403 1001.6,403 1013.6,415 1013.6,501 780,501 "/>
    <polygon style="fill: none; fill-opacity:0; stroke-width: 2; stroke: #000000" points="780,403 1001.6,403 1013.6,415 1013.6,501 780,501 "/>
    <polyline style="fill: none; fill-opacity:0; stroke-width: 1; stroke: #000000" points="1001.6,403 1001.6,415 1013.6,415 "/>
    <text font-size="12.8" style="fill: #000000;text-anchor:start;font-family:monospace;font-style:normal;font-weight:normal" x="787" y="427.9">
      <tspan x="787" y="427.9">Since inheritance is not</tspan>
      <tspan x="787" y="443.9">properly supported by Rails,</tspan>
      <tspan x="787" y="459.9">this part of the model is </tspan>
      <tspan x="787" y="475.9">quite far from the imple-</tspan>
      <tspan x="787" y="491.9">mentation</tspan>
    </text>
  </g>
  <g>
    <polyline style="fill: none; fill-opacity:0; stroke-width: 2; stroke: #000000" points="545.107,235 636.27,235 636.27,234.718 727.433,234.718 "/>
    <text font-size="12.7998" style="fill: #000000;text-anchor:start;font-family:monospace;font-style:normal;font-weight:normal" x="638.27" y="230.859"/>
    <text font-size="12.7998" style="fill: #000000;text-anchor:start;font-family:monospace;font-style:normal;font-weight:normal" x="549.107" y="231">1</text>
    <text font-size="12.7998" style="fill: #000000;text-anchor:end;font-family:monospace;font-style:normal;font-weight:normal" x="723.433" y="230.718">0..*</text>
  </g>
  <g>
    <polygon style="fill: #ffffff" points="1086,179 1384.6,179 1396.6,191 1396.6,277 1086,277 "/>
    <polygon style="fill: none; fill-opacity:0; stroke-width: 2; stroke: #000000" points="1086,179 1384.6,179 1396.6,191 1396.6,277 1086,277 "/>
    <polyline style="fill: none; fill-opacity:0; stroke-width: 1; stroke: #000000" points="1384.6,179 1384.6,191 1396.6,191 "/>
    <text font-size="12.8" style="fill: #000000;text-anchor:start;font-family:monospace;font-style:normal;font-weight:normal" x="1093" y="203.9">
      <tspan x="1093" y="203.9">AnnotationSource was once connected</tspan>
      <tspan x="1093" y="219.9">to individual AnnotationTargets, but</tspan>
      <tspan x="1093" y="235.9">this did not work with common parts of</tspan>
      <tspan x="1093" y="251.9">annotation such as assembly. May have</tspan>
      <tspan x="1093" y="267.9">to have both.</tspan>
    </text>
  </g>
</svg>
